<svg xmlns="http://www.w3.org/2000/svg" xmlns:xlink="http://www.w3.org/1999/xlink" width="180.897" height="52.083" viewBox="0 0 180.897 52.083">
  <defs>
    <clipPath id="clip-path">
      <rect id="Rectangle_361" data-name="Rectangle 361" width="180.897" height="52.083" fill="#aa1138"/>
    </clipPath>
  </defs>
  <g id="Group_603" data-name="Group 603" transform="translate(0 0)">
    <g id="Group_249" data-name="Group 249" transform="translate(0 0)" clip-path="url(#clip-path)">
      <text id="Dalelna" transform="translate(47.691 39.145)" fill="#aa1138" font-size="37" font-family="Oscine-Bold, Oscine" font-weight="700"><tspan x="0" y="0">Dalelna</tspan></text>
      <path id="Path_236" data-name="Path 236" d="M12.2,0H4.288A4.287,4.287,0,0,0,0,4.287v38.6A4.286,4.286,0,0,0,4.286,47.17h.937a86.35,86.35,0,0,0-.583-13.5c.619,3.21,1.357,6.4,2.2,9.54q.534,1.984,1.133,3.961h.764Q8.109,45.1,7.55,43.02A136.327,136.327,0,0,1,4.609,29.3a8.111,8.111,0,0,0,3.275.59,9.966,9.966,0,0,0,1.928-.175,5.384,5.384,0,0,0,2.028-.791,87.819,87.819,0,0,0-1.288,18.25h.736A87.823,87.823,0,0,1,12.81,27.675s0-.008,0-.01l.029-.166s0-.007,0-.01a1.25,1.25,0,0,0,.012-.161V27.3c0-.962-.961-1.933-2.821-2.358.376-2.468,1.32-5.14,3.62-5.34v-3.1a.4.4,0,0,1,.465-.393.413.413,0,0,1,.331.414v3.105c4.08.688,3.6,9.513,3.6,9.513V38.13l-1.8,1.111a.732.732,0,0,0-.337.736h0c.008.053.471,3.077.626,6.791.244-.045.487-.1.729-.148-.125-2.868-.429-5.3-.565-6.288a.73.73,0,0,1,.34-.722l1-.619,1.933-1.2a.732.732,0,0,1,1.117.623v7.01c.258-.106.514-.214.767-.328V32.72c.151.01.308.015.466.015a4.829,4.829,0,0,0,3.211-.969V43.029c.242-.166.48-.335.714-.51V21.238a.4.4,0,0,1,.464-.393.413.413,0,0,1,.331.413v3.152l2.5,2.089a2.743,2.743,0,0,1,.982,2.1v9.812A23.585,23.585,0,0,0,12.2,0m-.379,26.618a1.016,1.016,0,0,1,.3.686.255.255,0,0,1,0,.046h0s0,.013,0,.017c-.013.058-.022.115-.032.173-.18.62-1.064,1.142-2.289,1.41a8.826,8.826,0,0,1-1.918.2c-2.154,0-3.933-.7-4.2-1.608a.74.74,0,0,1-.034-.178s0-.013,0-.017h0a.338.338,0,0,1,0-.046,1.006,1.006,0,0,1,.3-.686,5.747,5.747,0,0,1,3.933-1.162,8.723,8.723,0,0,1,2.055.232,3.822,3.822,0,0,1,1.884.929m10.516,5.628c-.056,0-.113,0-.166,0s-.107,0-.159,0l-.141-.007a.071.071,0,0,1-.024,0c-.105-.007-.21-.017-.313-.029-.154-.017-.3-.041-.449-.07-.1-.019-.188-.039-.278-.064-.044-.01-.088-.022-.129-.034a3.746,3.746,0,0,1-.613-.222c-.052-.024-.1-.049-.149-.073a.634.634,0,0,1-.058-.034.956.956,0,0,1-.1-.056c-.037-.022-.071-.044-.105-.068-.051-.036-.1-.073-.146-.112s-.1-.088-.137-.132a.691.691,0,0,1-.056-.069.82.82,0,0,1-.1-.144.672.672,0,0,1-.032-.068A.262.262,0,0,1,19.169,31a.491.491,0,0,1-.03-.105.676.676,0,0,1-.015-.139c0-.027,0-.052,0-.078a.557.557,0,0,1,.015-.083.428.428,0,0,1,.025-.084.215.215,0,0,1,.022-.056.411.411,0,0,1,.032-.066.882.882,0,0,1,.1-.149.843.843,0,0,1,.061-.07c.022-.024.045-.047.069-.071a1.574,1.574,0,0,1,.134-.115,2.287,2.287,0,0,1,.335-.214c.046-.025.1-.049.149-.074.036-.017.073-.034.112-.049.058-.024.117-.049.178-.07s.125-.045.19-.064.159-.049.242-.068a.04.04,0,0,1,.017,0c.078-.019.156-.036.237-.054s.175-.034.266-.049.183-.027.278-.037c.073-.01.149-.015.224-.022l.029,0,.032,0,.052,0h.015c.054,0,.109-.007.166-.007.076,0,.154,0,.235,0,1.774,0,3.211.668,3.211,1.5s-1.437,1.494-3.211,1.494M25.55,29.74a4.814,4.814,0,0,0-3.211-.972c-.159,0-.315,0-.466.015V27.2a.654.654,0,0,1,.654-.654H24.9a.654.654,0,0,1,.654.654Zm.636-13.029-4.313,4.314L17.56,16.711a6.1,6.1,0,1,1,8.626,0m-2.5-6.127a2.566,2.566,0,1,1-3.628,0A2.566,2.566,0,0,1,23.686,10.584Z" transform="translate(0 0)" fill="#aa1138"/>
    </g>
  </g>
</svg>
