<?xml version="1.0" encoding="utf-8"?>
<!-- Generator: Adobe Illustrator 26.0.3, SVG Export Plug-In . SVG Version: 6.00 Build 0)  -->
<svg version="1.0" xmlns="http://www.w3.org/2000/svg" xmlns:xlink="http://www.w3.org/1999/xlink" x="0px" y="0px"
	 viewBox="0 0 190 52.1" enable-background="new 0 0 190 52.1" xml:space="preserve">
<g id="Dalelna_00000148620150403717212850000002887717928541381559_">
	<g enable-background="new    ">
		<path fill="#A60A3D" d="M57.6,14.6h8.7c2.8,0,5,0.6,6.6,1.7c1.6,1.1,2.8,2.5,3.5,4.1c0.3,0.8,0.6,1.6,0.7,2.6
			c0.2,0.9,0.3,2.2,0.3,3.8v6.1c0,1.6-0.1,2.8-0.3,3.8c-0.2,0.9-0.4,1.8-0.7,2.5c-0.7,1.6-1.7,2.9-3.3,4c-1.5,1.1-3.6,1.7-6.2,1.7
			h-9.3c-0.5,0-0.9-0.1-1.1-0.2c-0.2-0.2-0.3-0.5-0.3-1V15.9c0-0.5,0.1-0.8,0.3-1C56.7,14.7,57.1,14.6,57.6,14.6z M61.5,19.2v21.1
			h4.8c1.3,0,2.3-0.2,3.2-0.7c0.9-0.4,1.5-1.2,2-2.3c0.5-1.1,0.7-2.6,0.7-4.5v-6.3c0-2.8-0.5-4.7-1.6-5.8c-1-1.1-2.5-1.6-4.3-1.6
			H61.5z"/>
		<path fill="#A60A3D" d="M90.1,30.9c0.7,0,1.4,0,2.2,0.1c0.8,0,1.6,0.1,2.4,0.2v-1.1c0-1.6-0.3-2.7-0.9-3.3
			c-0.6-0.6-1.6-0.9-2.8-0.9c-0.9,0-1.6,0.1-2.2,0.4s-1,0.7-1.2,1.4c-0.1,0.3-0.3,0.6-0.4,0.7c-0.2,0.1-0.5,0.1-0.9,0.1h-2.8
			c-0.5,0-0.8-0.1-0.9-0.2c-0.2-0.2-0.3-0.4-0.3-0.7c0-1.1,0.4-2.1,1.3-3.1c0.7-0.8,1.6-1.4,2.8-1.8c1.2-0.4,2.7-0.6,4.6-0.6
			c2.2,0,3.9,0.3,5.2,0.9c1.3,0.6,2.1,1.5,2.7,2.6c0.5,1.2,0.8,2.6,0.8,4.2V38c0,1.2-0.2,2.4-0.7,3.5c-0.5,1.1-1.3,2-2.5,2.7
			c-1.2,0.7-2.8,1-5,1h-1.2c-3,0-5.2-0.6-6.7-1.7c-1.4-1.1-2.1-2.9-2.1-5.4c0-1.8,0.4-3.3,1.2-4.4c0.8-1.1,1.8-1.8,3.1-2.3
			C87.1,31.2,88.5,30.9,90.1,30.9z M90.4,34.8c-1.3,0-2.3,0.3-3,0.8c-0.7,0.5-1,1.4-1,2.6s0.3,2.1,1,2.5c0.7,0.5,1.6,0.7,2.8,0.7
			h0.7c1.4,0,2.4-0.3,3-1s0.9-1.8,0.9-3.4v-1.9c-0.9-0.1-1.8-0.2-2.5-0.2C91.5,34.8,90.9,34.8,90.4,34.8z"/>
		<path fill="#A60A3D" d="M109.8,15.9v27.8c0,0.5-0.1,0.8-0.3,1c-0.2,0.2-0.5,0.2-1.1,0.2h-2.3c-0.5,0-0.9-0.1-1.1-0.2
			c-0.2-0.2-0.3-0.5-0.3-1V15.9c0-0.5,0.1-0.8,0.3-1c0.2-0.2,0.5-0.2,1.1-0.2h2.3c0.5,0,0.9,0.1,1.1,0.2
			C109.7,15,109.8,15.4,109.8,15.9z"/>
		<path fill="#A60A3D" d="M131.8,35.1h-12.3v0.2c0,2.1,0.3,3.6,1,4.5s1.9,1.3,3.5,1.3c2.1,0,3.3-0.7,3.8-2.2
			c0.2-0.5,0.6-0.7,1.1-0.7h2.6c0.5,0,0.8,0.1,1,0.2c0.2,0.1,0.3,0.4,0.3,0.8c0,0.5-0.2,1.2-0.5,1.9c-0.4,0.7-0.8,1.3-1.3,1.8
			c-0.8,0.8-1.8,1.5-3.1,1.9c-1.3,0.4-2.6,0.7-4.1,0.7c-3,0-5.3-0.8-7-2.5c-1.6-1.7-2.5-4.1-2.5-7.3v-3.3c0-3.3,0.8-5.8,2.5-7.6
			c1.6-1.8,4-2.7,7-2.7c3,0,5.3,0.8,6.9,2.5c1.6,1.7,2.4,4.1,2.4,7.3v2c0,0.5-0.1,0.8-0.3,1C132.8,35,132.4,35.1,131.8,35.1z
			 M124,26.1c-1.5,0-2.6,0.4-3.3,1.2c-0.7,0.8-1.1,2.1-1.1,4h8.6c0-1.8-0.3-3.1-1-3.9C126.4,26.5,125.4,26.1,124,26.1z"/>
		<path fill="#A60A3D" d="M142.9,15.9v27.8c0,0.5-0.1,0.8-0.3,1c-0.2,0.2-0.5,0.2-1.1,0.2h-2.3c-0.5,0-0.9-0.1-1.1-0.2
			c-0.2-0.2-0.3-0.5-0.3-1V15.9c0-0.5,0.1-0.8,0.3-1c0.2-0.2,0.5-0.2,1.1-0.2h2.3c0.5,0,0.9,0.1,1.1,0.2
			C142.8,15,142.9,15.4,142.9,15.9z"/>
		<path fill="#A60A3D" d="M159.5,22c2.4,0,4.2,0.7,5.3,2.1c1.2,1.4,1.7,3.2,1.7,5.6v13.9c0,0.5-0.1,0.8-0.3,1
			c-0.2,0.2-0.5,0.2-1.1,0.2h-2.3c-0.5,0-0.9-0.1-1.1-0.2c-0.2-0.2-0.3-0.5-0.3-1V30.5c0-1.3-0.3-2.3-0.8-3c-0.5-0.7-1.5-1-2.9-1
			c-1.4,0-2.4,0.4-3.2,1.3s-1.2,2-1.2,3.5v12.4c0,0.5-0.1,0.8-0.3,1c-0.2,0.2-0.5,0.2-1.1,0.2h-2.3c-0.5,0-0.9-0.1-1.1-0.2
			c-0.2-0.2-0.3-0.5-0.3-1V23.9c0-0.5,0.1-0.8,0.3-1c0.2-0.2,0.5-0.2,1.1-0.2h2.3c0.5,0,0.9,0.1,1.1,0.2c0.2,0.2,0.3,0.5,0.3,1v0.9
			c0.7-0.8,1.5-1.5,2.6-2C157,22.3,158.2,22,159.5,22z"/>
		<path fill="#A60A3D" d="M179.5,30.9c0.7,0,1.4,0,2.2,0.1c0.8,0,1.6,0.1,2.4,0.2v-1.1c0-1.6-0.3-2.7-0.9-3.3
			c-0.6-0.6-1.6-0.9-2.8-0.9c-0.9,0-1.6,0.1-2.2,0.4c-0.6,0.3-1,0.7-1.2,1.4c-0.1,0.3-0.3,0.6-0.4,0.7c-0.2,0.1-0.5,0.1-0.9,0.1
			h-2.8c-0.5,0-0.8-0.1-0.9-0.2c-0.2-0.2-0.3-0.4-0.3-0.7c0-1.1,0.4-2.1,1.3-3.1c0.7-0.8,1.6-1.4,2.8-1.8c1.2-0.4,2.7-0.6,4.6-0.6
			c2.2,0,3.9,0.3,5.2,0.9c1.3,0.6,2.1,1.5,2.7,2.6c0.5,1.2,0.8,2.6,0.8,4.2V38c0,1.2-0.2,2.4-0.7,3.5s-1.3,2-2.5,2.7
			c-1.2,0.7-2.8,1-5,1h-1.2c-3,0-5.2-0.6-6.7-1.7c-1.4-1.1-2.1-2.9-2.1-5.4c0-1.8,0.4-3.3,1.2-4.4c0.8-1.1,1.8-1.8,3.1-2.3
			C176.4,31.2,177.9,30.9,179.5,30.9z M179.7,34.8c-1.3,0-2.3,0.3-3,0.8c-0.7,0.5-1,1.4-1,2.6s0.3,2.1,1,2.5
			c0.7,0.5,1.6,0.7,2.8,0.7h0.7c1.4,0,2.4-0.3,3-1s0.9-1.8,0.9-3.4v-1.9c-0.9-0.1-1.8-0.2-2.5-0.2C180.9,34.8,180.3,34.8,179.7,34.8
			z"/>
	</g>
</g>
<g id="D-Icon">
	<path id="Path_236" fill="#F7AA00" d="M14.4,0.3H5.7C3.1,0.3,1,2.4,1,5c0,0,0,0,0,0v42.2c0,2.6,2.1,4.7,4.7,4.7l0,0h1
		c0.2-4.9,0-9.9-0.6-14.7c0.7,3.5,1.5,7,2.4,10.4c0.4,1.4,0.8,2.9,1.2,4.3h0.8c-0.5-1.5-0.9-3-1.3-4.5c-1.3-4.9-2.4-9.9-3.2-15
		c1.1,0.5,2.4,0.7,3.6,0.6c0.7,0,1.4-0.1,2.1-0.2c0.8-0.1,1.5-0.4,2.2-0.9c-1.2,6.6-1.6,13.3-1.4,19.9h0.8
		c-0.2-7.1,0.3-14.3,1.7-21.3c0,0,0,0,0,0c0-0.1,0-0.1,0-0.2c0,0,0,0,0,0c0-0.1,0-0.1,0-0.2v0c0-1.1-1.1-2.1-3.1-2.6
		c0.4-2.7,1.4-5.6,4-5.8v-3.4c0-0.2,0.2-0.4,0.4-0.4c0,0,0,0,0.1,0c0.2,0,0.4,0.2,0.4,0.5v3.4c4.5,0.8,3.9,10.4,3.9,10.4v9.8l-2,1.2
		c-0.3,0.2-0.4,0.5-0.4,0.8l0,0c0,0.1,0.5,3.4,0.7,7.4c0.3,0,0.5-0.1,0.8-0.2c-0.1-3.1-0.5-5.8-0.6-6.9c0-0.3,0.1-0.6,0.4-0.8
		l1.1-0.7l2.1-1.3c0.4-0.2,0.9-0.1,1.1,0.3c0.1,0.1,0.1,0.3,0.1,0.4v7.7c0.3-0.1,0.6-0.2,0.8-0.4V36c0.2,0,0.3,0,0.5,0
		c1.3,0.1,2.5-0.3,3.5-1.1v12.3c0.3-0.2,0.5-0.4,0.8-0.6V23.5c0-0.2,0.2-0.4,0.4-0.4c0,0,0,0,0.1,0c0.2,0,0.4,0.2,0.4,0.5v3.4
		l2.7,2.3c0.7,0.6,1.1,1.4,1.1,2.3v10.7c9-11.1,7.3-27.3-3.8-36.2C26,2.3,20.3,0.3,14.4,0.3 M14,29.4c0.2,0.2,0.3,0.5,0.3,0.7
		c0,0,0,0,0,0.1l0,0c0,0,0,0,0,0c0,0.1,0,0.1,0,0.2c-0.2,0.7-1.2,1.2-2.5,1.5c-0.7,0.2-1.4,0.2-2.1,0.2c-2.4,0-4.3-0.8-4.6-1.8
		c0-0.1,0-0.1,0-0.2c0,0,0,0,0,0l0,0c0,0,0,0,0-0.1c0-0.3,0.1-0.6,0.3-0.7c0.7-0.7,2.4-1.3,4.3-1.3c0.8,0,1.5,0.1,2.2,0.3
		C12.7,28.5,13.4,28.8,14,29.4 M25.5,35.5c-0.1,0-0.1,0-0.2,0s-0.1,0-0.2,0l-0.2,0c0,0,0,0,0,0c-0.1,0-0.2,0-0.3,0
		c-0.2,0-0.3,0-0.5-0.1c-0.1,0-0.2,0-0.3-0.1c0,0-0.1,0-0.1,0c-0.2-0.1-0.5-0.1-0.7-0.2c-0.1,0-0.1-0.1-0.2-0.1c0,0,0,0-0.1,0
		c0,0-0.1,0-0.1-0.1c0,0-0.1,0-0.1-0.1c-0.1,0-0.1-0.1-0.2-0.1c-0.1,0-0.1-0.1-0.2-0.1c0,0,0,0-0.1-0.1c0,0-0.1-0.1-0.1-0.2
		c0,0,0,0,0-0.1c0,0,0,0,0-0.1c0,0,0-0.1,0-0.1c0-0.1,0-0.1,0-0.2c0,0,0-0.1,0-0.1c0,0,0-0.1,0-0.1c0,0,0-0.1,0-0.1c0,0,0,0,0-0.1
		c0,0,0,0,0-0.1c0-0.1,0.1-0.1,0.1-0.2c0,0,0-0.1,0.1-0.1c0,0,0-0.1,0.1-0.1c0,0,0.1-0.1,0.1-0.1c0.1-0.1,0.2-0.2,0.4-0.2
		c0.1,0,0.1-0.1,0.2-0.1c0,0,0.1,0,0.1-0.1c0.1,0,0.1-0.1,0.2-0.1c0.1,0,0.1,0,0.2-0.1s0.2-0.1,0.3-0.1c0,0,0,0,0,0
		c0.1,0,0.2,0,0.3-0.1c0.1,0,0.2,0,0.3-0.1s0.2,0,0.3,0c0.1,0,0.2,0,0.2,0c0,0,0,0,0,0h0c0,0,0,0,0.1,0h0c0.1,0,0.1,0,0.2,0
		c0.1,0,0.2,0,0.3,0c1.9,0,3.5,0.7,3.5,1.6S27.4,35.5,25.5,35.5 M29,32.8c-1-0.8-2.3-1.1-3.5-1.1c-0.2,0-0.3,0-0.5,0V30
		c0-0.4,0.3-0.7,0.7-0.7h2.6c0.4,0,0.7,0.3,0.7,0.7c0,0,0,0,0,0L29,32.8z M29.7,18.5L25,23.2l-4.7-4.7c-2.6-2.6-2.6-6.8,0-9.4
		s6.8-2.6,9.4,0C32.3,11.7,32.3,15.9,29.7,18.5 M26.9,11.8c1.1,1.1,1.1,2.9,0,4c-1.1,1.1-2.9,1.1-4,0s-1.1-2.9,0-4c0,0,0,0,0,0
		C24.1,10.7,25.8,10.7,26.9,11.8z"/>
</g>
</svg>
