<svg id="Group_620" data-name="Group 620" xmlns="http://www.w3.org/2000/svg" xmlns:xlink="http://www.w3.org/1999/xlink" width="67.879" height="67.857" viewBox="0 0 67.879 67.857">
  <defs>
    <clipPath id="clip-path">
      <rect id="Rectangle_384" data-name="Rectangle 384" width="67.879" height="67.857" fill="#fff"/>
    </clipPath>
  </defs>
  <g id="Group_619" data-name="Group 619" clip-path="url(#clip-path)">
    <path id="Path_1412" data-name="Path 1412" d="M46.728,35.553A17.776,17.776,0,1,1,64.5,17.776,17.8,17.8,0,0,1,46.728,35.553m0-32.386A14.609,14.609,0,1,0,61.338,17.776,14.626,14.626,0,0,0,46.728,3.167" transform="translate(-22.402)" fill="#fff"/>
    <path id="Path_1413" data-name="Path 1413" d="M47.014,223.136a1.584,1.584,0,0,1-1.584-1.584V215.2a11.37,11.37,0,0,0-11.357-11.357H14.524A11.37,11.37,0,0,0,3.167,215.2v6.35a1.584,1.584,0,0,1-3.167,0V215.2a14.541,14.541,0,0,1,14.524-14.524H34.073A14.541,14.541,0,0,1,48.6,215.2v6.35a1.584,1.584,0,0,1-1.584,1.584" transform="translate(0 -155.28)" fill="#fff"/>
    <path id="Path_1414" data-name="Path 1414" d="M187.347,35.554a1.584,1.584,0,1,1,0-3.167,14.609,14.609,0,1,0,0-29.218,1.584,1.584,0,1,1,0-3.167,17.776,17.776,0,1,1,0,35.553" transform="translate(-143.739 -0.001)" fill="#fff"/>
    <path id="Path_1415" data-name="Path 1415" d="M243.374,223.136a1.584,1.584,0,0,1-1.584-1.584V215.2a11.37,11.37,0,0,0-11.357-11.357,1.584,1.584,0,0,1,0-3.167A14.541,14.541,0,0,1,244.958,215.2v6.35a1.584,1.584,0,0,1-1.584,1.584" transform="translate(-177.079 -155.28)" fill="#fff"/>
  </g>
</svg>
