<svg xmlns="http://www.w3.org/2000/svg" xmlns:xlink="http://www.w3.org/1999/xlink" width="19.931" height="19.939" viewBox="0 0 19.931 19.939">
  <defs>
    <clipPath id="clip-path">
      <rect width="19.931" height="19.939" fill="none"/>
    </clipPath>
  </defs>
  <g id="Repeat_Grid_1" data-name="Repeat Grid 1" clip-path="url(#clip-path)">
    <g transform="translate(-314 -159.956)">
      <g id="pie_chart" data-name="pie chart" transform="translate(314 159.956)">
        <g id="Layer_66" data-name="Layer 66" transform="translate(-2.078 -1.993)">
          <path id="Vector" d="M19.922,11.087a.94.94,0,0,0-.2-.72h0a1,1,0,0,0-.8-.36h-9v-9a1.26,1.26,0,0,0,0-.27h0a1,1,0,0,0-1.08-.73,10,10,0,1,0,11.08,11.18v-.1Zm-10,6.92a8,8,0,0,1-2-15.77v8.77a.993.993,0,0,0,1,1h8.73a8,8,0,0,1-7.73,6Zm3-10h5.24a1.032,1.032,0,0,0,.96-1.25,8,8,0,0,0-6-6,1,1,0,0,0-.74.12h0a1,1,0,0,0-.48.86v5.27a1,1,0,0,0,1.02,1Zm3.83-2h-2.83V3.157a6,6,0,0,1,2.85,2.85Z" transform="translate(2.078 1.993)" fill="#ffffff"/>
        </g>
      </g>
    </g>
  </g>
</svg>
