<svg id="bell" xmlns="http://www.w3.org/2000/svg" width="15.989" height="19" viewBox="0 0 15.989 19">
  <g id="Layer_98" data-name="Layer 98" transform="translate(-4.006 -2)">
    <path id="Vector" d="M15.744,13.05c-.37-.7-.83-1.38-1.18-2.06A4.51,4.51,0,0,1,13.994,9V7.21a6.35,6.35,0,0,0-1.52-4.13,5.87,5.87,0,0,0-3.48-2V1a1,1,0,0,0-2,0v.09a6,6,0,0,0-5,5.91V9a4.51,4.51,0,0,1-.57,2c-.35.68-.81,1.36-1.18,2.06A1.982,1.982,0,0,0,1.994,16h3a3,3,0,1,0,6,0h3a1.993,1.993,0,0,0,1.75-2.95ZM7.994,17a1,1,0,0,1-1-1h2a1,1,0,0,1-1,1Zm-6-3c.3-.56.78-1.27,1.2-2.1a6.33,6.33,0,0,0,.8-2.9V7a4,4,0,0,1,4-4h.4a3.84,3.84,0,0,1,2.6,1.38,4.38,4.38,0,0,1,1,2.83V9a6.33,6.33,0,0,0,.79,2.89c.42.83.9,1.54,1.2,2.1H1.994Z" transform="translate(4.006 2)" fill="#e3e3e3"/>
  </g>
</svg>
