<svg id="dialog" xmlns="http://www.w3.org/2000/svg" width="21" height="19" viewBox="0 0 21 19">
  <g id="Layer_23" data-name="Layer 23" transform="translate(-2 -3)">
    <path id="Vector" d="M13,12a3,3,0,0,0,3-3V3a3,3,0,0,0-3-3H3A3,3,0,0,0,0,3V9a3,3,0,0,0,3,3H4v2a.992.992,0,0,0,1.49.88L10.27,12Zm-7,.22V11a.974.974,0,0,0-1-1H3A1,1,0,0,1,2,9V3A1,1,0,0,1,3,2H13a1,1,0,0,1,1,1V9a1,1,0,0,1-1,1H10a1,1,0,0,0-.51.14ZM21,9v4a3,3,0,0,1-3,3H17v2a1,1,0,0,1-1.6.8L11.67,16H10a1,1,0,1,1,0-2h2a1.15,1.15,0,0,1,.36.07l.1.06.14.07L15,16V15a1,1,0,0,1,1-1h2a1,1,0,0,0,1-1V9a1,1,0,0,0-1-1,1,1,0,1,1,0-2,3,3,0,0,1,3,3Z" transform="translate(2 3)" fill="#e3e3e3"/>
  </g>
</svg>
