<svg xmlns="http://www.w3.org/2000/svg" width="18" height="18" viewBox="0 0 18 18">
  <g id="Layer_180" data-name="Layer 180" transform="translate(-3 -3)">
    <path id="Vector" d="M3,8H15a3,3,0,0,0,3-3V3a3,3,0,0,0-3-3H3A3,3,0,0,0,0,3V5A3,3,0,0,0,3,8ZM2,5V3A1,1,0,0,1,3,2H15a1,1,0,0,1,1,1V5a1,1,0,0,1-1,1H3A1,1,0,0,1,2,5Zm13,5H3a3,3,0,0,0-3,3v2a3,3,0,0,0,3,3H15a3,3,0,0,0,3-3V13a3,3,0,0,0-3-3Zm1,5a1,1,0,0,1-1,1H3a1,1,0,0,1-1-1V13a1,1,0,0,1,1-1H15a1,1,0,0,1,1,1Z" transform="translate(3 3)" fill="#e3e3e3"/>
  </g>
</svg>
