<svg id="location" xmlns="http://www.w3.org/2000/svg" width="16" height="20.636" viewBox="0 0 16 20.636">
  <g id="Layer_71" data-name="Layer 71" transform="translate(-4 -2)">
    <path id="Vector" d="M8,5a3,3,0,1,0,2.121.879A3,3,0,0,0,8,5ZM8,9a1,1,0,1,1,.707-.293A1,1,0,0,1,8,9ZM8,0A8,8,0,0,0,0,8c0,6,5.37,10.51,7.31,12.36a1,1,0,0,0,1.38,0C10.63,18.51,16,14,16,8A8,8,0,0,0,8,0ZM8,18.26C6,16.34,2,12.54,2,8A6,6,0,1,1,14,8C14,12.54,10.05,16.34,8,18.26Z" transform="translate(4 2)" fill="#e3e3e3"/>
  </g>
</svg>
